<?xml version="1.0" standalone="no"?>
<!DOCTYPE svg PUBLIC "-//W3C//DTD SVG 20010904//EN"
 "http://www.w3.org/TR/2001/REC-SVG-20010904/DTD/svg10.dtd">
<svg version="1.0" xmlns="http://www.w3.org/2000/svg"
 width="2778.000000pt" height="849.000000pt" viewBox="0 0 2778.000000 849.000000"
 preserveAspectRatio="xMidYMid meet">
<metadata>
Created by potrace 1.16, written by Peter Selinger 2001-2019
</metadata>
<g transform="translate(0.000000,849.000000) scale(0.100000,-0.100000)"
fill="#ffffff" stroke="none">
<path d="M818 7667 l-818 -825 0 -2711 0 -2711 1420 0 1420 0 0 675 0 675
-600 0 -600 0 -2 2861 -3 2861 -817 -825z"/>
<path d="M19740 6189 c-664 -57 -1179 -240 -1530 -542 -227 -195 -374 -447
-442 -755 -30 -133 -32 -444 -5 -572 97 -452 401 -796 888 -1003 369 -157 738
-227 1299 -248 337 -12 427 -25 527 -74 123 -61 178 -150 177 -291 0 -62 -5
-82 -37 -147 -98 -197 -321 -290 -623 -257 -275 29 -457 152 -526 355 l-17 50
-888 3 c-488 1 -893 0 -898 -2 -17 -6 2 -187 30 -295 32 -121 116 -293 193
-397 32 -43 104 -122 159 -175 354 -339 906 -532 1683 -589 273 -20 725 -11
985 21 1031 123 1655 558 1822 1269 34 146 43 399 19 555 -130 837 -911 1286
-2297 1320 -129 3 -277 11 -329 16 -169 19 -307 75 -390 158 -111 111 -108
293 8 409 46 46 160 105 244 126 157 40 432 45 563 11 88 -23 197 -79 245
-127 45 -45 100 -147 100 -185 0 -57 -72 -53 941 -53 l929 0 0 30 c0 83 -62
296 -120 411 -49 95 -147 235 -227 319 -360 383 -929 601 -1723 660 -156 12
-621 11 -760 -1z"/>
<path d="M2202 6003 c3 -10 367 -1030 808 -2268 442 -1237 807 -2266 813
-2285 8 -32 -13 -95 -252 -738 -144 -387 -261 -706 -261 -708 0 -2 390 -3 867
-2 l868 3 1107 2985 c609 1642 1111 2995 1114 3008 l6 22 -867 -2 -868 -3
-431 -1162 c-237 -639 -434 -1159 -437 -1155 -3 4 -183 504 -399 1112 -216
608 -401 1129 -412 1158 l-19 52 -821 0 c-776 0 -820 -1 -816 -17z"/>
<path d="M9750 6013 c-628 -61 -1057 -223 -1515 -572 -123 -93 -383 -351 -491
-486 -220 -277 -415 -610 -569 -975 -79 -187 -205 -569 -260 -789 -127 -510
-205 -1126 -205 -1618 l0 -153 819 0 818 0 7 188 c7 193 23 440 32 480 l4 22
790 0 790 0 0 -345 0 -345 820 0 820 0 0 2300 0 2300 -912 -2 c-502 0 -929 -3
-948 -5z m220 -2078 l0 -475 -620 0 -620 0 46 91 c103 207 249 408 387 534
213 196 496 316 765 324 l42 1 0 -475z"/>
<path d="M12290 3715 l0 -2305 820 0 820 0 2 1147 3 1147 815 -1142 815 -1142
823 0 822 0 0 2300 0 2300 -820 0 -820 0 0 -1146 c0 -661 -4 -1143 -9 -1140
-5 3 -374 519 -821 1146 l-812 1140 -819 0 -819 0 0 -2305z"/>
<path d="M25850 6009 c-300 -28 -635 -115 -900 -234 -1242 -558 -2011 -2090
-2076 -4137 l-7 -218 826 0 827 0 0 153 c1 142 11 329 26 475 l6 62 789 0 789
0 0 -345 0 -345 825 0 825 0 0 2300 0 2300 -917 -1 c-505 -1 -961 -6 -1013
-10z m280 -2074 l0 -475 -615 0 c-338 0 -615 2 -615 5 0 12 95 193 133 254
170 274 400 488 635 591 129 57 289 95 420 99 l42 1 0 -475z"/>
</g>
</svg>
